# xmcd
#
# Track frame offsets:
#	150
#	10749
#	20909
#	33232
#	43810
#	52443
#	63584
#	71911
#	82195
#	92102
#	104564
#	115245
#	127561
#	137784
#	149040
#	160962
#	170630
#	183329
#
# Disc length: 2587 seconds
#
# Revision: 1
# Processed by: cddbd v1.5.2PL0 Copyright (c) Steve Scherf et al.
# Submitted via: audiograbber 1.83.01
#
DISCID=140a1912
DTITLE=Fats Domino - Golden Star
DYEAR=1900
DGENRE=
TTITLE0=Blueberry Hill
TTITLE1=Can't Go On Without You
TTITLE2=Goodnight Sweetheart
TTITLE3=Slow Boat To China
TTITLE4=Ain't That A Shame
TTITLE5=Birds And Bees
TTITLE6=Blue Monday
TTITLE7=Forever Forever
TTITLE8=It Keeps Rainin'
TTITLE9=Jambalaya (On The Bayon)
TTITLE10=Lazy Lady
TTITLE11=Margie
TTITLE12=Once In A While
TTITLE13=Red Sailos In The Sunset
TTITLE14=Sally Sails In The Sunset
TTITLE15=Sally Was A Good Old Girl
TTITLE16=One Night
TTITLE17=There Goes My Heart Again
EXTD=
EXTT0=
EXTT1=
EXTT2=
EXTT3=
EXTT4=
EXTT5=
EXTT6=
EXTT7=
EXTT8=
EXTT9=
EXTT10=
EXTT11=
EXTT12=
EXTT13=
EXTT14=
EXTT15=
EXTT16=
EXTT17=
PLAYORDER=
